# xmcd
#
# Track frame offsets:
#	150
#	63375
#	108145
#	133215
#	185705
#	196426
#
# Disc length: 3173 seconds
#
# Revision: 1
# Processed by: cddbd v1.5.2PL0 Copyright (c) Steve Scherf et al.
# Submitted via: audiograbber 1.83.01
#
DISCID=570c6306
DTITLE=Grateful Dead - 85-06-30 Merriweather Post Pavilion, Columbia MD
DYEAR=1900
DGENRE=
TTITLE0=Shakedown Street
TTITLE1=Samson and Delilah
TTITLE2=Gimme Some Lovin
TTITLE3=He's Gone
TTITLE4=Cryptical Envelopment
TTITLE5=Drums
EXTD=
EXTT0=
EXTT1=
EXTT2=
EXTT3=
EXTT4=
EXTT5=
PLAYORDER=
